<!--?xml version="1.0" encoding="utf-8"?-->
<!-- Generator: Adobe Illustrator 23.1.0, SVG Export Plug-In . SVG Version: 6.00 Build 0)  -->
<svg version="1.1" id="Layer_1" xmlns="http://www.w3.org/2000/svg" xmlns:xlink="http://www.w3.org/1999/xlink" x="0px" y="0px" viewBox="0 0 165.45 164.43" style="" xml:space="preserve">
<style type="text/css">
	.st0{display:none;}
	.st1{display:inline;fill:none;stroke:#000000;stroke-width:5;stroke-linecap:round;stroke-miterlimit:10;}
	.st2{display:inline;fill:none;stroke:#000000;stroke-width:5;stroke-miterlimit:10;}
	.st3{fill:none;stroke:#FFFFFF;stroke-width:5;stroke-linejoin:round;stroke-miterlimit:10;}
</style>
<path id="_x31__2_" class="st3 fCKOWCNZ_0" d="M60.02,145.66h47.4c0.67,0,1.21,0.54,1.21,1.21V156c0,1.62-1.31,2.94-2.94,2.94H58.53
	c-0.67,0-1.21-0.54-1.21-1.21v-9.36C57.32,146.87,58.53,145.66,60.02,145.66z"></path>
<path id="_x32__2_" class="st3 fCKOWCNZ_1" d="M46.8,15.33L14.56,48.05c-0.45,0.46-1.19,0.47-1.66,0.01l-7.82-7.71
	c-0.44-0.44-0.45-1.15-0.01-1.59L37.34,6.01c0.49-0.5,1.29-0.5,1.79-0.01l7.65,7.54C47.29,14.02,47.29,14.83,46.8,15.33z"></path>
<path id="_x33__2_" class="st3 fCKOWCNZ_2" d="M149.94,46.9l-29.78-29.7c-1.32-1.31-1.32-3.44-0.01-4.76l6.51-6.53c0.27-0.27,0.7-0.27,0.97,0
	l31.68,31.6c0.27,0.27,0.27,0.7,0,0.97l-8.41,8.43C150.64,47.16,150.2,47.16,149.94,46.9z"></path>
<path id="_x37__1_" class="st3 fCKOWCNZ_3" d="M62.68,104.55c0-0.57,0-49.02,0-49.02s-0.19-6.64,6.13-6.64s6.89,4.73,6.89,4.73v40.6v-42.7
	c0,0-0.7-7.47,7.02-7.47s6.77,7.66,6.77,7.66v40.4V55.91c0,0,0.7-5.04,7.28-5.17c6-0.12,6.51,5.36,6.51,5.36v38.11V75.26
	c0,0,1.59-3.82,7.09-2.49c2.11,0.51,3.74,3.91,3.66,5.13c-0.09,1.3-0.2,2.59-0.2,3.9l0.21,40.37c0,0,1.12,3.26-0.8,5.94
	c-1.91,2.68-8.23,7.66-9.77,9s-0.57,8.55-0.57,8.55H62.68c0,0,0.96-7.02-1.91-10.09s-3.39-2.58-7.47-7.28
	c-2.11-2.43-1.66-4.47-1.66-4.47V97.15c0,0,0.45-4.6,2.94-6.83c2.49-2.23,7.6-2.94,7.6-2.94"></path>
<path id="_x35__2_" class="st3 fCKOWCNZ_4" d="M53.25,94.85L26.67,68.59c0,0-3.03-1.58-3.69-4.71c-0.66-3.13-0.12-10.73-0.08-12.66
	c0.04-1.94-5.69-6.41-5.69-6.41l25.91-25.98c0,0,4.35,5.58,8.37,5.88s4.02-0.37,9.96,0.31c3.07,0.35,4.23,2.08,4.23,2.08l16.68,17.2
	"></path>
<path id="_x36__1_" class="st3 fCKOWCNZ_5" d="M81.38,43.96l13.99-16.41c0,0,1.43-3.11,4.6-3.83c3.17-0.72,10.99-0.24,12.97-0.23
	c1.99,0.02,6.23-5.89,6.23-5.89l28.18,26.21c0,0-5.45,4.52-5.53,8.63s0.62,4.1,0.28,10.2c-0.18,3.15-1.88,4.35-1.88,4.35
	l-18.17,19.54c0,0-3.44,3.07-6.71,3.09s-0.1-0.48-0.1-0.48"></path>
<style data-made-with="vivus-instant">.fCKOWCNZ_0{stroke-dasharray:126 128;stroke-dashoffset:127;animation:fCKOWCNZ_draw_0 7200ms linear 0ms infinite,fCKOWCNZ_fade 7200ms linear 0ms infinite;}.fCKOWCNZ_1{stroke-dasharray:122 124;stroke-dashoffset:123;animation:fCKOWCNZ_draw_1 7200ms linear 0ms infinite,fCKOWCNZ_fade 7200ms linear 0ms infinite;}.fCKOWCNZ_2{stroke-dasharray:117 119;stroke-dashoffset:118;animation:fCKOWCNZ_draw_2 7200ms linear 0ms infinite,fCKOWCNZ_fade 7200ms linear 0ms infinite;}.fCKOWCNZ_3{stroke-dasharray:524 526;stroke-dashoffset:525;animation:fCKOWCNZ_draw_3 7200ms linear 0ms infinite,fCKOWCNZ_fade 7200ms linear 0ms infinite;}.fCKOWCNZ_4{stroke-dasharray:151 153;stroke-dashoffset:152;animation:fCKOWCNZ_draw_4 7200ms linear 0ms infinite,fCKOWCNZ_fade 7200ms linear 0ms infinite;}.fCKOWCNZ_5{stroke-dasharray:151 153;stroke-dashoffset:152;animation:fCKOWCNZ_draw_5 7200ms linear 0ms infinite,fCKOWCNZ_fade 7200ms linear 0ms infinite;}@keyframes fCKOWCNZ_draw{100%{stroke-dashoffset:0;}}@keyframes fCKOWCNZ_fade{0%{stroke-opacity:1;}94.44444444444444%{stroke-opacity:1;}100%{stroke-opacity:0;}}@keyframes fCKOWCNZ_draw_0{11.11111111111111%{stroke-dashoffset: 127}52.77777777777778%{ stroke-dashoffset: 0;}100%{ stroke-dashoffset: 0;}}@keyframes fCKOWCNZ_draw_1{11.11111111111111%{stroke-dashoffset: 123}52.77777777777778%{ stroke-dashoffset: 0;}100%{ stroke-dashoffset: 0;}}@keyframes fCKOWCNZ_draw_2{11.11111111111111%{stroke-dashoffset: 118}52.77777777777778%{ stroke-dashoffset: 0;}100%{ stroke-dashoffset: 0;}}@keyframes fCKOWCNZ_draw_3{11.11111111111111%{stroke-dashoffset: 525}52.77777777777778%{ stroke-dashoffset: 0;}100%{ stroke-dashoffset: 0;}}@keyframes fCKOWCNZ_draw_4{11.11111111111111%{stroke-dashoffset: 152}52.77777777777778%{ stroke-dashoffset: 0;}100%{ stroke-dashoffset: 0;}}@keyframes fCKOWCNZ_draw_5{11.11111111111111%{stroke-dashoffset: 152}52.77777777777778%{ stroke-dashoffset: 0;}100%{ stroke-dashoffset: 0;}}</style></svg>
