<!--?xml version="1.0" encoding="utf-8"?-->
<!-- Generator: Adobe Illustrator 23.1.0, SVG Export Plug-In . SVG Version: 6.00 Build 0)  -->
<svg version="1.1" id="Layer_1" xmlns="http://www.w3.org/2000/svg" xmlns:xlink="http://www.w3.org/1999/xlink" x="0px" y="0px" viewBox="0 0 165.45 164.43" style="" xml:space="preserve">
<style type="text/css">
	.st0{fill:none;stroke:#FFFFFF;stroke-width:5;stroke-linecap:round;stroke-miterlimit:10;}
	.st1{display:none;}
	.st2{display:inline;fill:none;stroke:#000000;stroke-width:5;stroke-miterlimit:10;}
	.st3{display:inline;fill:none;stroke:#000000;stroke-width:5;stroke-linejoin:round;stroke-miterlimit:10;}
</style>
<path id="_x34_" class="st0 rgaNCxOL_0" d="M26.65,126.3c0.19,0,6.55,0,16.09,0c29.93,0,91.15,0,91.15,0l20.87,13.4l-18.96,13.98H26.65
	c0,0-11.14-4.29-10.76-14.44C16.27,129.09,26.65,126.3,26.65,126.3z"></path>
<path id="_x33_" class="st0 rgaNCxOL_1" d="M41.39,126.81L41.39,153.17"></path>
<path id="_x32_" class="st0 rgaNCxOL_2" d="M41.39,139.99L93.16,139.99"></path>
<path id="_x31_" class="st0 rgaNCxOL_3" d="M133.88,126.3L133.88,153.68"></path>
<path id="_x35_" class="st0 rgaNCxOL_4" d="M152.96,21.18v86.81c0,0,0.93,1.82-0.89,3.35s-4.5,2.97-4.5,2.97h-49.5c0,0,4.79,10.72-10.91,10.72
	s-14.74-11.3-14.74-11.3H21.47l-4.6-4.98V21.18H29.7v-8.94h46.53c0,0-0.19-0.19,2.87,1.72c3.06,1.91,5.87,5.36,5.87,5.36
	s2.52-2,5.04-4.02c2.34-1.88,3.13-2.11,3.13-2.11h47.81v7.76L152.96,21.18z"></path>
<path id="_x36_" class="st0 rgaNCxOL_5" d="M30.29,21.94L30.29,103.32L140.59,103.32L140.59,20.28"></path>
<path id="_x37_" class="st0 rgaNCxOL_6" d="M39.67,26.15L75.29,26.15"></path>
<path id="_x38_" class="st0 rgaNCxOL_7" d="M39.67,42.42L75.29,42.42"></path>
<path id="_x39_" class="st0 rgaNCxOL_8" d="M39.67,58.7L75.29,58.7"></path>
<path id="_x31_0" class="st0 rgaNCxOL_9" d="M39.67,74.98L75.29,74.98"></path>
<path id="_x31_1" class="st0 rgaNCxOL_10" d="M39.67,91.25L75.29,91.25"></path>
<path id="_x31_2" class="st0 rgaNCxOL_11" d="M95.97,26.15L131.59,26.15"></path>
<path id="_x31_3" class="st0 rgaNCxOL_12" d="M95.97,42.42L131.59,42.42"></path>
<path id="_x31_4" class="st0 rgaNCxOL_13" d="M95.97,58.7L131.59,58.7"></path>
<path id="_x31_5" class="st0 rgaNCxOL_14" d="M95.97,74.98L131.59,74.98"></path>
<path id="_x31_6" class="st0 rgaNCxOL_15" d="M95.97,91.25L131.59,91.25"></path>
<path id="_x31_7" class="st0 rgaNCxOL_16" d="M85.44,102.55c0.02-0.57-0.4-83.23-0.4-83.23"></path>
<g class="st1">
	<path id="_x31__2_" class="st3 rgaNCxOL_17" d="M60.02,145.66h47.4c0.67,0,1.21,0.54,1.21,1.21V156c0,1.62-1.31,2.94-2.94,2.94H58.53
		c-0.67,0-1.21-0.54-1.21-1.21v-9.36C57.32,146.87,58.53,145.66,60.02,145.66z"></path>
	<path id="_x32__2_" class="st3 rgaNCxOL_18" d="M46.8,15.33L14.56,48.05c-0.45,0.46-1.19,0.47-1.66,0.01l-7.82-7.71
		c-0.44-0.44-0.45-1.15-0.01-1.59L37.34,6.01c0.49-0.5,1.29-0.5,1.79-0.01l7.65,7.54C47.29,14.02,47.29,14.83,46.8,15.33z"></path>
	<path id="_x33__2_" class="st3 rgaNCxOL_19" d="M149.94,46.9l-29.78-29.7c-1.32-1.31-1.32-3.44-0.01-4.76l6.51-6.53c0.27-0.27,0.7-0.27,0.97,0
		l31.68,31.6c0.27,0.27,0.27,0.7,0,0.97l-8.41,8.43C150.64,47.16,150.2,47.16,149.94,46.9z"></path>
	<path id="_x37__1_" class="st3 rgaNCxOL_20" d="M62.68,104.55c0-0.57,0-49.02,0-49.02s-0.19-6.64,6.13-6.64s6.89,4.73,6.89,4.73v40.6v-42.7
		c0,0-0.7-7.47,7.02-7.47s6.77,7.66,6.77,7.66v40.4V55.91c0,0,0.7-5.04,7.28-5.17c6-0.12,6.51,5.36,6.51,5.36v38.11V75.26
		c0,0,1.59-3.82,7.09-2.49c2.11,0.51,3.74,3.91,3.66,5.13c-0.09,1.3-0.2,2.59-0.2,3.9l0.21,40.37c0,0,1.12,3.26-0.8,5.94
		c-1.91,2.68-8.23,7.66-9.77,9s-0.57,8.55-0.57,8.55H62.68c0,0,0.96-7.02-1.91-10.09s-3.39-2.58-7.47-7.28
		c-2.11-2.43-1.66-4.47-1.66-4.47V97.15c0,0,0.45-4.6,2.94-6.83c2.49-2.23,7.6-2.94,7.6-2.94"></path>
	<path id="_x35__2_" class="st3 rgaNCxOL_21" d="M53.25,94.85L26.67,68.59c0,0-3.03-1.58-3.69-4.71c-0.66-3.13-0.12-10.73-0.08-12.66
		c0.04-1.94-5.69-6.41-5.69-6.41l25.91-25.98c0,0,4.35,5.58,8.37,5.88s4.02-0.37,9.96,0.31c3.07,0.35,4.23,2.08,4.23,2.08
		l16.68,17.2"></path>
	<path id="_x36__1_" class="st3 rgaNCxOL_22" d="M81.38,43.96l13.99-16.41c0,0,1.43-3.11,4.6-3.83c3.17-0.72,10.99-0.24,12.97-0.23
		c1.99,0.02,6.23-5.89,6.23-5.89l28.18,26.21c0,0-5.45,4.52-5.53,8.63s0.62,4.1,0.28,10.2c-0.18,3.15-1.88,4.35-1.88,4.35
		l-18.17,19.54c0,0-3.44,3.07-6.71,3.09s-0.1-0.48-0.1-0.48"></path>
</g>
<style data-made-with="vivus-instant">.rgaNCxOL_0{stroke-dasharray:302 304;stroke-dashoffset:303;animation:rgaNCxOL_draw_0 7200ms linear 0ms infinite,rgaNCxOL_fade 7200ms linear 0ms infinite;}.rgaNCxOL_1{stroke-dasharray:27 29;stroke-dashoffset:28;animation:rgaNCxOL_draw_1 7200ms linear 0ms infinite,rgaNCxOL_fade 7200ms linear 0ms infinite;}.rgaNCxOL_2{stroke-dasharray:52 54;stroke-dashoffset:53;animation:rgaNCxOL_draw_2 7200ms linear 0ms infinite,rgaNCxOL_fade 7200ms linear 0ms infinite;}.rgaNCxOL_3{stroke-dasharray:28 30;stroke-dashoffset:29;animation:rgaNCxOL_draw_3 7200ms linear 0ms infinite,rgaNCxOL_fade 7200ms linear 0ms infinite;}.rgaNCxOL_4{stroke-dasharray:489 491;stroke-dashoffset:490;animation:rgaNCxOL_draw_4 7200ms linear 0ms infinite,rgaNCxOL_fade 7200ms linear 0ms infinite;}.rgaNCxOL_5{stroke-dasharray:275 277;stroke-dashoffset:276;animation:rgaNCxOL_draw_5 7200ms linear 0ms infinite,rgaNCxOL_fade 7200ms linear 0ms infinite;}.rgaNCxOL_6{stroke-dasharray:36 38;stroke-dashoffset:37;animation:rgaNCxOL_draw_6 7200ms linear 0ms infinite,rgaNCxOL_fade 7200ms linear 0ms infinite;}.rgaNCxOL_7{stroke-dasharray:36 38;stroke-dashoffset:37;animation:rgaNCxOL_draw_7 7200ms linear 0ms infinite,rgaNCxOL_fade 7200ms linear 0ms infinite;}.rgaNCxOL_8{stroke-dasharray:36 38;stroke-dashoffset:37;animation:rgaNCxOL_draw_8 7200ms linear 0ms infinite,rgaNCxOL_fade 7200ms linear 0ms infinite;}.rgaNCxOL_9{stroke-dasharray:36 38;stroke-dashoffset:37;animation:rgaNCxOL_draw_9 7200ms linear 0ms infinite,rgaNCxOL_fade 7200ms linear 0ms infinite;}.rgaNCxOL_10{stroke-dasharray:36 38;stroke-dashoffset:37;animation:rgaNCxOL_draw_10 7200ms linear 0ms infinite,rgaNCxOL_fade 7200ms linear 0ms infinite;}.rgaNCxOL_11{stroke-dasharray:36 38;stroke-dashoffset:37;animation:rgaNCxOL_draw_11 7200ms linear 0ms infinite,rgaNCxOL_fade 7200ms linear 0ms infinite;}.rgaNCxOL_12{stroke-dasharray:36 38;stroke-dashoffset:37;animation:rgaNCxOL_draw_12 7200ms linear 0ms infinite,rgaNCxOL_fade 7200ms linear 0ms infinite;}.rgaNCxOL_13{stroke-dasharray:36 38;stroke-dashoffset:37;animation:rgaNCxOL_draw_13 7200ms linear 0ms infinite,rgaNCxOL_fade 7200ms linear 0ms infinite;}.rgaNCxOL_14{stroke-dasharray:36 38;stroke-dashoffset:37;animation:rgaNCxOL_draw_14 7200ms linear 0ms infinite,rgaNCxOL_fade 7200ms linear 0ms infinite;}.rgaNCxOL_15{stroke-dasharray:36 38;stroke-dashoffset:37;animation:rgaNCxOL_draw_15 7200ms linear 0ms infinite,rgaNCxOL_fade 7200ms linear 0ms infinite;}.rgaNCxOL_16{stroke-dasharray:84 86;stroke-dashoffset:85;animation:rgaNCxOL_draw_16 7200ms linear 0ms infinite,rgaNCxOL_fade 7200ms linear 0ms infinite;}.rgaNCxOL_17{stroke-dasharray:126 128;stroke-dashoffset:127;animation:rgaNCxOL_draw_17 7200ms linear 0ms infinite,rgaNCxOL_fade 7200ms linear 0ms infinite;}.rgaNCxOL_18{stroke-dasharray:122 124;stroke-dashoffset:123;animation:rgaNCxOL_draw_18 7200ms linear 0ms infinite,rgaNCxOL_fade 7200ms linear 0ms infinite;}.rgaNCxOL_19{stroke-dasharray:117 119;stroke-dashoffset:118;animation:rgaNCxOL_draw_19 7200ms linear 0ms infinite,rgaNCxOL_fade 7200ms linear 0ms infinite;}.rgaNCxOL_20{stroke-dasharray:524 526;stroke-dashoffset:525;animation:rgaNCxOL_draw_20 7200ms linear 0ms infinite,rgaNCxOL_fade 7200ms linear 0ms infinite;}.rgaNCxOL_21{stroke-dasharray:151 153;stroke-dashoffset:152;animation:rgaNCxOL_draw_21 7200ms linear 0ms infinite,rgaNCxOL_fade 7200ms linear 0ms infinite;}.rgaNCxOL_22{stroke-dasharray:151 153;stroke-dashoffset:152;animation:rgaNCxOL_draw_22 7200ms linear 0ms infinite,rgaNCxOL_fade 7200ms linear 0ms infinite;}@keyframes rgaNCxOL_draw{100%{stroke-dashoffset:0;}}@keyframes rgaNCxOL_fade{0%{stroke-opacity:1;}94.44444444444444%{stroke-opacity:1;}100%{stroke-opacity:0;}}@keyframes rgaNCxOL_draw_0{11.11111111111111%{stroke-dashoffset: 303}52.77777777777778%{ stroke-dashoffset: 0;}100%{ stroke-dashoffset: 0;}}@keyframes rgaNCxOL_draw_1{11.11111111111111%{stroke-dashoffset: 28}52.77777777777778%{ stroke-dashoffset: 0;}100%{ stroke-dashoffset: 0;}}@keyframes rgaNCxOL_draw_2{11.11111111111111%{stroke-dashoffset: 53}52.77777777777778%{ stroke-dashoffset: 0;}100%{ stroke-dashoffset: 0;}}@keyframes rgaNCxOL_draw_3{11.11111111111111%{stroke-dashoffset: 29}52.77777777777778%{ stroke-dashoffset: 0;}100%{ stroke-dashoffset: 0;}}@keyframes rgaNCxOL_draw_4{11.11111111111111%{stroke-dashoffset: 490}52.77777777777778%{ stroke-dashoffset: 0;}100%{ stroke-dashoffset: 0;}}@keyframes rgaNCxOL_draw_5{11.11111111111111%{stroke-dashoffset: 276}52.77777777777778%{ stroke-dashoffset: 0;}100%{ stroke-dashoffset: 0;}}@keyframes rgaNCxOL_draw_6{11.11111111111111%{stroke-dashoffset: 37}52.77777777777778%{ stroke-dashoffset: 0;}100%{ stroke-dashoffset: 0;}}@keyframes rgaNCxOL_draw_7{11.11111111111111%{stroke-dashoffset: 37}52.77777777777778%{ stroke-dashoffset: 0;}100%{ stroke-dashoffset: 0;}}@keyframes rgaNCxOL_draw_8{11.11111111111111%{stroke-dashoffset: 37}52.77777777777778%{ stroke-dashoffset: 0;}100%{ stroke-dashoffset: 0;}}@keyframes rgaNCxOL_draw_9{11.11111111111111%{stroke-dashoffset: 37}52.77777777777778%{ stroke-dashoffset: 0;}100%{ stroke-dashoffset: 0;}}@keyframes rgaNCxOL_draw_10{11.11111111111111%{stroke-dashoffset: 37}52.77777777777778%{ stroke-dashoffset: 0;}100%{ stroke-dashoffset: 0;}}@keyframes rgaNCxOL_draw_11{11.11111111111111%{stroke-dashoffset: 37}52.77777777777778%{ stroke-dashoffset: 0;}100%{ stroke-dashoffset: 0;}}@keyframes rgaNCxOL_draw_12{11.11111111111111%{stroke-dashoffset: 37}52.77777777777778%{ stroke-dashoffset: 0;}100%{ stroke-dashoffset: 0;}}@keyframes rgaNCxOL_draw_13{11.11111111111111%{stroke-dashoffset: 37}52.77777777777778%{ stroke-dashoffset: 0;}100%{ stroke-dashoffset: 0;}}@keyframes rgaNCxOL_draw_14{11.11111111111111%{stroke-dashoffset: 37}52.77777777777778%{ stroke-dashoffset: 0;}100%{ stroke-dashoffset: 0;}}@keyframes rgaNCxOL_draw_15{11.11111111111111%{stroke-dashoffset: 37}52.77777777777778%{ stroke-dashoffset: 0;}100%{ stroke-dashoffset: 0;}}@keyframes rgaNCxOL_draw_16{11.11111111111111%{stroke-dashoffset: 85}52.77777777777778%{ stroke-dashoffset: 0;}100%{ stroke-dashoffset: 0;}}@keyframes rgaNCxOL_draw_17{11.11111111111111%{stroke-dashoffset: 127}52.77777777777778%{ stroke-dashoffset: 0;}100%{ stroke-dashoffset: 0;}}@keyframes rgaNCxOL_draw_18{11.11111111111111%{stroke-dashoffset: 123}52.77777777777778%{ stroke-dashoffset: 0;}100%{ stroke-dashoffset: 0;}}@keyframes rgaNCxOL_draw_19{11.11111111111111%{stroke-dashoffset: 118}52.77777777777778%{ stroke-dashoffset: 0;}100%{ stroke-dashoffset: 0;}}@keyframes rgaNCxOL_draw_20{11.11111111111111%{stroke-dashoffset: 525}52.77777777777778%{ stroke-dashoffset: 0;}100%{ stroke-dashoffset: 0;}}@keyframes rgaNCxOL_draw_21{11.11111111111111%{stroke-dashoffset: 152}52.77777777777778%{ stroke-dashoffset: 0;}100%{ stroke-dashoffset: 0;}}@keyframes rgaNCxOL_draw_22{11.11111111111111%{stroke-dashoffset: 152}52.77777777777778%{ stroke-dashoffset: 0;}100%{ stroke-dashoffset: 0;}}</style></svg>
