<!--?xml version="1.0" encoding="utf-8"?-->
<!-- Generator: Adobe Illustrator 23.1.0, SVG Export Plug-In . SVG Version: 6.00 Build 0)  -->
<svg version="1.1" id="Layer_1" xmlns="http://www.w3.org/2000/svg" xmlns:xlink="http://www.w3.org/1999/xlink" x="0px" y="0px" viewBox="0 0 165.45 164.43" style="" xml:space="preserve">
<style type="text/css">
	.st0{display:none;}
	.st1{display:inline;fill:none;stroke:#000000;stroke-width:5;stroke-linecap:round;stroke-miterlimit:10;}
	.st2{fill:none;stroke:#FFFFFF;stroke-width:5;stroke-miterlimit:10;}
</style>
<path id="_x31__1_" class="st2 JDOGxEeQ_0" d="M77.23,29.57V19.53h-9.57V8.43h28.72v10.91h-8.81l0,9.78c0,0.55,0.47,0.96,1.01,0.89
	c9.53-1.16,57.87,13.55,56.82,66.11c-0.53,26.32-14.18,41.74-29.23,50.67c-21.7,12.86-48.99,12.73-70.37-0.66
	c-13.9-8.71-26.4-23.4-26.4-48.08c0-54.56,43.98-65.87,57.15-67.71C76.94,30.29,77.23,29.96,77.23,29.57z"></path>
<path id="_x32__1_" class="st2 JDOGxEeQ_1" d="M14.43,41.75c2.36-2.32,7.72-7.74,10.02-10.07c0.6-0.61,1.57-0.61,2.18,0l7.77,7.77
	c0.55,0.55,0.61,1.43,0.12,2.05c-2.54,3.18-10.78,11.27-11.21,10.99c-1.36-0.91-6.46-6.24-8.85-8.52
	C13.82,43.35,13.81,42.35,14.43,41.75z"></path>
<path id="_x33__1_" class="st2 JDOGxEeQ_2" d="M29.12,47.28L35.23,52.18"></path>
<path id="_x34__1_" class="st2 JDOGxEeQ_3" d="M82.41,44.62c54.37,0,49.78,55.34,49.78,55.34s0.26,44.43-49.47,44.43s-50.55-45-50.55-45
	S30.53,44.62,82.41,44.62z"></path>
<path id="_x35__1_" class="st2 JDOGxEeQ_4" d="M115.88,55.44L85.41,90.52c0,0-8.68-2.99-8.25,4.36c0.43,7.35,8.47,5.36,9.41,3.64
	c0.93-1.72,1.66-4.88-1.1-7.95"></path>
<style data-made-with="vivus-instant">.JDOGxEeQ_0{stroke-dasharray:479 481;stroke-dashoffset:480;animation:JDOGxEeQ_draw_0 7200ms linear 0ms infinite,JDOGxEeQ_fade 7200ms linear 0ms infinite;}.JDOGxEeQ_1{stroke-dasharray:61 63;stroke-dashoffset:62;animation:JDOGxEeQ_draw_1 7200ms linear 0ms infinite,JDOGxEeQ_fade 7200ms linear 0ms infinite;}.JDOGxEeQ_2{stroke-dasharray:8 10;stroke-dashoffset:9;animation:JDOGxEeQ_draw_2 7200ms linear 0ms infinite,JDOGxEeQ_fade 7200ms linear 0ms infinite;}.JDOGxEeQ_3{stroke-dasharray:319 321;stroke-dashoffset:320;animation:JDOGxEeQ_draw_3 7200ms linear 0ms infinite,JDOGxEeQ_fade 7200ms linear 0ms infinite;}.JDOGxEeQ_4{stroke-dasharray:80 82;stroke-dashoffset:81;animation:JDOGxEeQ_draw_4 7200ms linear 0ms infinite,JDOGxEeQ_fade 7200ms linear 0ms infinite;}@keyframes JDOGxEeQ_draw{100%{stroke-dashoffset:0;}}@keyframes JDOGxEeQ_fade{0%{stroke-opacity:1;}94.44444444444444%{stroke-opacity:1;}100%{stroke-opacity:0;}}@keyframes JDOGxEeQ_draw_0{11.11111111111111%{stroke-dashoffset: 480}52.77777777777778%{ stroke-dashoffset: 0;}100%{ stroke-dashoffset: 0;}}@keyframes JDOGxEeQ_draw_1{11.11111111111111%{stroke-dashoffset: 62}52.77777777777778%{ stroke-dashoffset: 0;}100%{ stroke-dashoffset: 0;}}@keyframes JDOGxEeQ_draw_2{11.11111111111111%{stroke-dashoffset: 9}52.77777777777778%{ stroke-dashoffset: 0;}100%{ stroke-dashoffset: 0;}}@keyframes JDOGxEeQ_draw_3{11.11111111111111%{stroke-dashoffset: 320}52.77777777777778%{ stroke-dashoffset: 0;}100%{ stroke-dashoffset: 0;}}@keyframes JDOGxEeQ_draw_4{11.11111111111111%{stroke-dashoffset: 81}52.77777777777778%{ stroke-dashoffset: 0;}100%{ stroke-dashoffset: 0;}}</style></svg>
